<?xml version="1.0" standalone="no"?>
<!DOCTYPE svg PUBLIC "-//W3C//DTD SVG 20010904//EN"
 "http://www.w3.org/TR/2001/REC-SVG-20010904/DTD/svg10.dtd">
<svg version="1.0" xmlns="http://www.w3.org/2000/svg"
 width="800.000000pt" height="800.000000pt" viewBox="0 0 800.000000 800.000000"
 preserveAspectRatio="xMidYMid meet">
<metadata>
Created by potrace 1.11, written by Peter Selinger 2001-2013
</metadata>
<g transform="translate(0.000000,800.000000) scale(0.100000,-0.100000)"
fill="#000000" stroke="none">
<path d="M5898 5599 c-8 -5 -15 -501 -9 -619 1 -13 57 -15 450 -13 340 1 449
-1 445 -10 -3 -7 -26 -27 -52 -44 -26 -18 -60 -44 -77 -58 -28 -23 -244 -191
-315 -245 -200 -152 -227 -177 -216 -191 13 -19 77 -97 91 -113 6 -6 75 -90
155 -186 79 -96 150 -181 157 -188 10 -10 20 -7 54 17 70 51 143 74 249 77 62
2 112 -2 142 -11 188 -56 324 -201 362 -385 39 -190 -46 -397 -207 -504 -317
-210 -733 -8 -771 374 -3 25 -5 45 -5 45 -19 5 -640 -3 -648 -8 -6 -4 -10 -22
-8 -40 2 -17 6 -61 10 -97 30 -300 216 -613 472 -796 120 -86 308 -169 423
-188 19 -3 56 -9 82 -14 71 -14 264 -12 348 3 126 22 139 26 206 51 286 107
510 306 643 570 36 73 78 182 87 229 2 11 10 54 18 95 15 75 16 330 2 395 -32
146 -101 321 -169 423 -76 116 -198 243 -297 310 -30 20 -57 39 -60 42 -14 15
-148 79 -154 73 -3 -3 -6 -1 -6 5 0 6 6 15 14 19 8 4 45 37 83 73 38 36 139
131 224 213 l156 147 0 270 c1 179 -3 272 -10 277 -13 8 -1856 10 -1869 2z"/>
<path d="M47 4550 c-10 -4 -12 -74 -11 -300 1 -162 2 -299 3 -305 1 -7 139 -9
396 -8 l395 1 -32 -36 c-17 -21 -50 -57 -73 -82 -35 -38 -86 -92 -185 -200
-16 -17 -208 -227 -225 -246 -33 -36 -200 -216 -252 -273 l-62 -66 -1 -242 0
-243 178 -1 c810 -2 1725 0 1729 5 4 4 7 442 4 584 l-1 27 -422 -1 c-233 0
-427 1 -431 4 -7 3 54 73 229 262 23 25 55 59 71 76 116 127 220 241 233 254
14 15 147 160 247 269 l40 44 0 238 0 239 -86 1 c-394 4 -1734 3 -1744 -1z"/>
<path d="M2068 4552 l-27 -3 26 -67 c14 -37 42 -114 63 -172 20 -58 88 -244
149 -415 106 -292 151 -417 172 -475 4 -14 14 -38 20 -55 7 -16 13 -34 15 -40
3 -12 277 -769 280 -773 1 -1 183 -3 405 -3 l403 -1 8 22 c4 12 10 33 13 48 2
15 9 38 14 52 5 14 28 93 51 175 23 83 70 251 105 375 35 124 71 254 81 290
17 64 30 93 31 68 1 -7 29 -114 63 -238 34 -124 63 -232 65 -240 2 -8 26 -96
53 -195 27 -99 60 -219 72 -267 20 -75 26 -88 44 -89 27 0 605 0 711 0 l81 1
19 58 c10 31 22 64 27 72 4 8 36 96 72 195 108 301 257 709 266 730 5 11 72
193 149 405 76 212 152 418 166 458 15 40 25 76 21 79 -9 9 -778 6 -786 -4 -6
-7 -36 -106 -45 -151 -2 -9 -33 -129 -70 -267 -36 -137 -68 -257 -70 -265 -5
-22 -119 -453 -128 -484 -3 -8 -92 313 -102 366 -2 10 -6 22 -9 26 -3 5 -7 20
-10 34 -2 14 -16 70 -31 124 -15 55 -29 106 -31 114 -10 39 -45 173 -64 245
-12 44 -24 87 -26 95 -15 64 -43 163 -47 166 -3 3 -647 7 -744 5 -17 -1 -24
-10 -31 -43 -6 -24 -50 -194 -97 -378 -48 -184 -88 -339 -89 -345 -2 -5 -8
-30 -15 -55 -7 -25 -14 -52 -16 -60 -2 -8 -13 -53 -25 -100 -12 -47 -23 -92
-25 -100 -2 -8 -8 -35 -15 -60 l-12 -45 -34 125 c-19 69 -43 159 -54 200 -78
286 -223 837 -223 848 0 6 -7 12 -16 13 -79 2 -782 3 -803 1z"/>
</g>
</svg>
