<svg height="512" viewBox="0 0 512 512" width="512" xmlns="http://www.w3.org/2000/svg"><path d="M476 256v180c0 11.046-8.954 20-20 20H56c-11.046 0-20-8.954-20-20V256" fill="#e8d0c1"/><path d="M476 406v30c0 11.05-8.95 20-20 20H56c-11.05 0-20-8.95-20-20v-30z" fill="#ddb9a3"/><path d="M462 256H50c-22.091 0-40-17.909-40-40v-80c0-11.046 8.954-20 20-20h452c11.046 0 20 8.954 20 20v80c0 22.091-17.909 40-40 40z" fill="#f4e8e0"/><path d="M156 116v200c0 16.569-13.431 30-30 30-16.569 0-30-13.431-30-30V116" fill="#d1a184"/><path d="M156 116v150c0 16.569-13.431 30-30 30-16.569 0-30-13.431-30-30V116" fill="#ddb9a3"/><path d="M416 116v200c0 16.569-13.431 30-30 30-16.569 0-30-13.431-30-30V116" fill="#d1a184"/><path d="M416 116v150c0 16.569-13.431 30-30 30-16.569 0-30-13.431-30-30V116" fill="#ddb9a3"/><path d="M280 216h-48c-5.523 0-10-4.477-10-10s4.477-10 10-10h48c5.523 0 10 4.477 10 10s-4.477 10-10 10z" fill="#e8d0c1"/><path d="M482 106H346V80c0-18.748-15.252-34-34-34H200c-18.748 0-34 15.252-34 34v26H30c-16.542 0-30 13.458-30 30v80c0 18.878 10.518 35.342 26 43.849V436c0 16.542 13.458 30 30 30h400c16.542 0 30-13.458 30-30V259.849c15.482-8.507 26-24.971 26-43.849v-80c0-16.542-13.458-30-30-30zM146 266c0 11.028-8.972 20-20 20s-20-8.972-20-20V126h40zm-40 34.619c5.888 3.415 12.717 5.381 20 5.381s14.112-1.966 20-5.381V316c0 11.028-8.972 20-20 20s-20-8.972-20-20zM166 126h180v120H166zm200 174.619c5.888 3.415 12.717 5.381 20 5.381s14.112-1.966 20-5.381V316c0 11.028-8.972 20-20 20s-20-8.972-20-20zM406 266c0 11.028-8.972 20-20 20s-20-8.972-20-20V126h40zM186 80c0-7.72 6.28-14 14-14h112c7.72 0 14 6.28 14 14v26H186zM20 136c0-5.514 4.486-10 10-10h56v120H50c-16.542 0-30-13.458-30-30zm436 310H56c-5.514 0-10-4.486-10-10v-20h420v20c0 5.514-4.486 10-10 10zm10-50H46V265.826c1.321.105 2.652.174 4 .174h36v50c0 22.056 17.944 40 40 40s40-17.944 40-40v-50h180v50c0 22.056 17.944 40 40 40s40-17.944 40-40v-50h36c1.348 0 2.679-.069 4-.174zm26-180c0 16.542-13.458 30-30 30h-36V126h56c5.514 0 10 4.486 10 10z" fill="#c68a65"/><g fill="#e8d0c1"><circle cx="126" cy="256" r="10"/><circle cx="386" cy="256" r="10"/></g></svg>